<?xml version="1.0" encoding="UTF-8"?>
<svg id="_圖層_1" data-name="圖層_1" xmlns="http://www.w3.org/2000/svg" version="1.1" viewBox="0 0 728.29 127.18">
  <!-- Generator: Adobe Illustrator 30.0.0, SVG Export Plug-In . SVG Version: 2.1.1 Build 123)  -->
  <defs>
    <style>
      .st0 {
        fill: #e87b35;
      }
    </style>
  </defs>
  <path d="M110.33,94.92l.83-81.15,14.12-.41-.43,102.67c-.56.56-13.19.69-14.33.04-23.73-22.69-47.11-45.79-70.96-68.35-4.67-4.42-9.42-9-14.53-12.83l-1.04,81.16c-4.56.57-9.15.57-13.7,0V13.77s14.1-.2,14.1-.2c26.15,23.8,50.75,49.35,76.6,73.49.69.65,8.98,8.35,9.35,7.86Z"/>
  <path d="M248.17,13.76c-.16,4.34.7,8.52,0,12.84-3.53-.38-7.15.33-10.57.43-18.98.54-38.94-1.11-57.74-.04-5.27.3-8.62.71-12.24,4.77-4.07,4.58-4.37,8.98-4.58,14.9-.12,3.42-.06,6.9.44,10.27l1.48.67c25.93.25,51.94-.36,77.81.45.73,4.44-.16,8.78,0,13.25l-78.62.47-.61.63c-.99,9.97-2.11,23.01,8.37,28.36,2.53,1.29,5.51,1.83,8.36,2.02,18.8,1.25,39.36-.24,58.54.41,3.1.11,6.24-.13,9.34,0,.62.6.67,12.18-.02,12.77-3.78.19-7.6-.08-11.39.03-17,.5-34.43,1.04-51.48.45-18.52-.65-35-6.85-36.33-27.95-.84-13.43-.72-32.09,0-45.58.57-10.68,5.04-19.84,14.54-25.25,11.62-6.62,31.05-3.96,44.2-3.91,13.5.05,27-.07,40.5-.02Z"/>
  <path class="st0" d="M623.87,13.35l70.8.4c26.93,4.77,31.76,42.25,7.12,54.33-13.41,6.57-34.51,2.67-49.5,3.63-11.95.77-15.7,6.73-16.4,18.01-.11,1.83-.24,11.78.53,12.55l1.38.47c26.41.08,52.84-.12,79.2.44,1.1.26.91,12.36.22,12.79h-94.74s-.5-.33-.5-.33c.66-19.49-5.75-45.11,16.56-54.75,12.37-5.35,35.47-2.38,49.49-3.22,7.95-.48,14.47-4.55,15.15-13.04.82-10.27-4.38-17.65-15.15-17.63l-64.16-.4v-13.25Z"/>
  <path d="M376.44,13.77l-45.69,50.7,46.1,51.57c-5.35.11-12.44,1.13-17.66.44-1.76-.23-4.77-4.73-6.2-6.24-1.88-1.98-3.96-3.79-5.82-5.78-9.09-9.71-17.7-19.91-27.04-29.37-.56-.1-3.51,3.07-4.1,3.69-11.72,12.32-22.73,25.34-34.67,37.47-5.22.29-10.81.53-15.98-.19-.62-.09-1.03.01-1.44-.63l45.64-50.92-44.4-50.72,18.26-.2c11.37,11.45,21.47,24.14,32.59,35.81.62.65,4.03,4.27,4.56,4.14l36.75-39.96,19.1.21Z"/>
  <path class="st0" d="M603.94,116.45c-13.47-.32-27.02.43-40.49.02s-23.37-1.86-34.95-9.86c-32.76-22.63-25.17-78.22,13.26-90.47,13.13-4.19,43.43-3.67,57.84-2.8,1.31.08,2.56.39,3.87.49.92,4.16.5,8.58.06,12.77-2.84-.37-5.79.34-8.49.43-12.56.45-37.49-2.2-48.07,1.74-31.12,11.57-32.78,57.2-2.25,70.77,12.84,5.71,37.81,2.84,52.78,3.67,2.06.11,4.84-.59,6.45.6v12.63Z"/>
  <path d="M390.14,13.76h100.88c-.17,4.45,1.14,8.88-.24,13.26-26.42-.35-52.87.42-79.28,0-.98-.02-1.89-.43-2.87-.45-5.92-.11-11.87.11-17.79.03-.27-.08-.7-.94-.7-1.05v-11.8Z"/>
  <path d="M447.43,38.2l-.05,77.16c-.66,1.92-11.49.88-13.65.68l-.02-77.6c.18-1.05,12.08-.68,13.72-.24Z"/>
</svg>